<svg xmlns="http://www.w3.org/2000/svg" viewBox="0 0 33 33" enable-background="new 0 0 33 33"><style type="text/css">.st0{fill-rule:evenodd;clip-rule:evenodd;fill:#FFFFFF;}</style><path id="Forma_1" d="M16.5.2C7.5.2.2 7.5.2 16.5s7.3 16.3 16.3 16.3c.6 0 1-.5 1-1 0-.6-.5-1-1-1-7.9 0-14.3-6.4-14.3-14.3S8.6 2.2 16.5 2.2s14.3 6.4 14.3 14.3c0 3.3-1.8 6.6-4.3 8-.9.5-1.9.8-3 .8.6-.4 1.2-.9 1.6-1.5.1-.1.2-.2.2-.4.3-.8.4-1.7.6-2.5.2-1.1-4.7-3.1-5.1-1.8-.2.5-.4 2-.7 2.5-.3.4-1 .2-1.4-.2-1.1-1-2.4-2.4-3.5-3.5 0 0-.1-.1-.1-.1s-.1-.1-.1-.1c-1.1-1.1-2.5-2.3-3.5-3.5-.4-.4-.5-1.1-.2-1.4.4-.3 2-.5 2.5-.7 1.3-.4-.8-5.3-1.8-5.1-.8.2-1.7.2-2.5.6 0 0-.1.1-.2.2-2.8 1.8-3.2 6.1-.4 9.3 1 1.2 2.1 2.4 3.2 3.6 0 0 .1.1.1.1s.1.1.1.1c1.2 1.1 2.5 2.8 4.8 4.3 4.7 3.1 8.3 2.3 10.4 1.1 3.7-2 5.3-6.3 5.3-9.7C32.8 7.5 25.5.2 16.5.2z" class="st0"/></svg>